<mxfile host="app.diagrams.net" modified="2024-02-27T10:39:15.564Z" agent="Mozilla/5.0 (X11; Linux x86_64) AppleWebKit/537.36 (KHTML, like Gecko) Chrome/122.0.0.0 Safari/537.36" etag="ph4Y5ugfU1mbP7bKnenz" version="23.1.7" type="device">
  <diagram name="Page-1" id="XZ3qhjXyUbHVMeMBHV_s">
    <mxGraphModel dx="1728" dy="983" grid="1" gridSize="10" guides="1" tooltips="1" connect="1" arrows="1" fold="1" page="1" pageScale="1" pageWidth="850" pageHeight="1100" math="0" shadow="0">
      <root>
        <mxCell id="0" />
        <mxCell id="1" parent="0" />
        <mxCell id="EWHMPKfBnV-rQj-S9Va0-1" value="" style="rounded=1;whiteSpace=wrap;html=1;" vertex="1" parent="1">
          <mxGeometry x="30" y="30" width="265" height="300" as="geometry" />
        </mxCell>
        <mxCell id="EWHMPKfBnV-rQj-S9Va0-2" value="Chain Simulator" style="text;html=1;align=center;verticalAlign=middle;whiteSpace=wrap;rounded=0;strokeWidth=1;fontSize=12;fontStyle=1" vertex="1" parent="1">
          <mxGeometry x="115" y="20" width="95" height="40" as="geometry" />
        </mxCell>
        <mxCell id="EWHMPKfBnV-rQj-S9Va0-4" value="node&lt;br&gt;shard 0" style="ellipse;whiteSpace=wrap;html=1;" vertex="1" parent="1">
          <mxGeometry x="55" y="60" width="70" height="60" as="geometry" />
        </mxCell>
        <mxCell id="EWHMPKfBnV-rQj-S9Va0-5" value="node&lt;br&gt;shard 1" style="ellipse;whiteSpace=wrap;html=1;" vertex="1" parent="1">
          <mxGeometry x="55" y="130" width="70" height="60" as="geometry" />
        </mxCell>
        <mxCell id="EWHMPKfBnV-rQj-S9Va0-6" value="node&amp;nbsp;&lt;br&gt;shard meta" style="ellipse;whiteSpace=wrap;html=1;" vertex="1" parent="1">
          <mxGeometry x="55" y="250" width="70" height="60" as="geometry" />
        </mxCell>
        <mxCell id="EWHMPKfBnV-rQj-S9Va0-12" value="" style="endArrow=none;dashed=1;html=1;rounded=0;" edge="1" parent="1">
          <mxGeometry width="50" height="50" relative="1" as="geometry">
            <mxPoint x="145" y="60" as="sourcePoint" />
            <mxPoint x="145" y="320" as="targetPoint" />
            <Array as="points">
              <mxPoint x="145" y="60" />
            </Array>
          </mxGeometry>
        </mxCell>
        <mxCell id="EWHMPKfBnV-rQj-S9Va0-13" value="proxy endpoints" style="rounded=1;whiteSpace=wrap;html=1;" vertex="1" parent="1">
          <mxGeometry x="182.5" y="80" width="72.5" height="120" as="geometry" />
        </mxCell>
        <mxCell id="EWHMPKfBnV-rQj-S9Va0-14" value="new&amp;nbsp;&lt;br&gt;endpoints" style="rounded=1;whiteSpace=wrap;html=1;" vertex="1" parent="1">
          <mxGeometry x="182.5" y="230" width="72.5" height="50" as="geometry" />
        </mxCell>
        <mxCell id="EWHMPKfBnV-rQj-S9Va0-15" value="" style="endArrow=none;dashed=1;html=1;dashPattern=1 3;strokeWidth=2;rounded=0;" edge="1" parent="1">
          <mxGeometry width="50" height="50" relative="1" as="geometry">
            <mxPoint x="89.57999999999998" y="240" as="sourcePoint" />
            <mxPoint x="89.57999999999998" y="210" as="targetPoint" />
          </mxGeometry>
        </mxCell>
        <mxCell id="EWHMPKfBnV-rQj-S9Va0-16" value="User" style="shape=umlActor;verticalLabelPosition=bottom;verticalAlign=top;html=1;outlineConnect=0;" vertex="1" parent="1">
          <mxGeometry x="395" y="150" width="30" height="60" as="geometry" />
        </mxCell>
        <mxCell id="EWHMPKfBnV-rQj-S9Va0-19" value="" style="endArrow=classic;startArrow=classic;html=1;rounded=0;" edge="1" parent="1">
          <mxGeometry width="50" height="50" relative="1" as="geometry">
            <mxPoint x="310" y="179.57999999999998" as="sourcePoint" />
            <mxPoint x="380" y="179.57999999999998" as="targetPoint" />
          </mxGeometry>
        </mxCell>
        <mxCell id="EWHMPKfBnV-rQj-S9Va0-20" value="REST APIS" style="text;html=1;align=center;verticalAlign=middle;resizable=0;points=[];autosize=1;strokeColor=none;fillColor=none;fontSize=10;" vertex="1" parent="1">
          <mxGeometry x="306" y="150" width="80" height="30" as="geometry" />
        </mxCell>
      </root>
    </mxGraphModel>
  </diagram>
</mxfile>
